<svg width="1042" height="1042" viewBox="0 0 1042 1042" fill="none" xmlns="http://www.w3.org/2000/svg">
<path d="M582 54C583.841 54.2654 583.841 54.2654 585.718 54.5361C631.236 61.2379 675.156 73.806 717 93C718.404 93.6354 718.404 93.6354 719.837 94.2837C761.204 113.073 800.702 139.228 833.98 170.227C836.155 172.248 838.385 174.19 840.641 176.121C845.661 180.497 850.349 185.199 855.046 189.915C856.56 191.435 858.079 192.949 859.6 194.463C864.944 199.803 870.104 205.242 875 211C875.925 212.049 876.852 213.096 877.781 214.141C886.437 223.993 894.246 234.431 902 245C902.477 245.645 902.954 246.289 903.446 246.954C950.335 310.365 979.158 387.832 988.312 465.938C988.394 466.63 988.475 467.322 988.559 468.036C990.579 485.499 991.207 502.809 991.188 520.375C991.187 521.901 991.187 521.901 991.186 523.458C991.161 539.066 990.788 554.48 989 570C988.876 571.131 988.753 572.261 988.625 573.426C982.285 630.173 966.825 689.254 937.848 738.777C935.791 742.365 933.967 746.028 932.16 749.746C930.627 752.724 928.859 755.514 927.016 758.309C925.833 760.14 925.833 760.14 925 763C924.34 763 923.68 763 923 763C921.925 765.652 920.905 768.284 920 771C919.34 771 918.68 771 918 771C917.773 771.654 917.546 772.307 917.312 772.98C915.566 776.998 913.32 780.604 911 784.312C910.549 785.053 910.098 785.794 909.633 786.557C909.197 787.256 908.761 787.955 908.312 788.676C907.917 789.314 907.521 789.953 907.113 790.611C906.746 791.069 906.379 791.528 906 792C905.34 792 904.68 792 904 792C904 792.99 904 793.98 904 795C903.34 795 902.68 795 902 795C901.67 796.32 901.34 797.64 901 799C900.34 799 899.68 799 899 799C898.67 800.32 898.34 801.64 898 803C897.34 803 896.68 803 896 803C895.67 804.32 895.34 805.64 895 807C894.34 807 893.68 807 893 807C892.75 807.721 892.5 808.441 892.242 809.184C890.886 812.258 889.251 814.467 887.125 817.062C886.447 817.899 885.769 818.736 885.07 819.598C883.134 821.844 881.109 823.917 879 826C877.841 827.28 876.695 828.572 875.562 829.875C874.958 830.57 874.353 831.265 873.73 831.98C872.257 833.7 870.81 835.436 869.375 837.188C867 840 867 840 864.707 842.281C862.822 844.175 861.016 846.063 859.238 848.051C853.872 854.044 848.556 859.413 842.117 864.289C840.183 865.852 838.717 867.365 837.188 869.312C834.939 872.074 833.049 873.247 830 875C828.312 876.645 826.646 878.313 825 880C819.496 885 819.496 885 817 885C816.67 885.99 816.34 886.98 816 888C814.667 888.333 813.333 888.667 812 889C811.67 889.99 811.34 890.98 811 892C808.938 892.688 808.938 892.688 807 893C807 893.66 807 894.32 807 895C805.68 895.33 804.36 895.66 803 896C803 896.66 803 897.32 803 898C801.68 898.33 800.36 898.66 799 899C799 899.66 799 900.32 799 901C797.68 901.33 796.36 901.66 795 902C795 902.66 795 903.32 795 904C792.57 905.649 790.142 907.183 787.625 908.688C782.929 911.552 778.283 914.415 773.812 917.625C764.821 924.02 755.452 929.394 745.535 934.215C741.932 936.034 738.474 938.013 735 940.062C729.284 943.41 723.419 946.113 717.297 948.637C714.347 949.857 711.455 951.152 708.562 952.5C696.357 958.078 683.783 962.633 671.062 966.875C670.29 967.133 669.518 967.391 668.722 967.657C636.645 978.308 603.611 985.363 570 989C569.082 989.104 568.164 989.209 567.219 989.316C535.701 992.775 502.489 992.677 471 989C469.054 988.774 469.054 988.774 467.068 988.543C414.725 982.301 364.564 967.859 317 945C316.163 944.605 315.326 944.21 314.463 943.804C275.527 925.423 239.289 900.248 207.512 871.266C206.133 870.022 204.748 868.785 203.335 867.58C197.609 862.679 192.269 857.422 186.954 852.085C185.44 850.565 183.921 849.051 182.4 847.537C177.056 842.197 171.892 836.761 167 831C166.051 829.917 165.101 828.835 164.148 827.754C137.096 796.741 114.853 761.918 96.9312 724.92C96.303 723.625 95.6704 722.332 95.0337 721.041C67.3663 664.909 51.042 599.566 50.7969 536.914C50.7863 535.103 50.7863 535.103 50.7755 533.255C50.758 529.378 50.7515 525.502 50.75 521.625C50.7497 520.964 50.7494 520.302 50.7491 519.621C50.7476 499.569 51.0563 479.87 54 460C54.196 458.613 54.3913 457.225 54.5859 455.838C62.0806 403.088 78.2423 353.658 102 306C102.39 305.216 102.78 304.432 103.182 303.624C121.559 267.01 146.403 233.374 174.027 203.219C176.028 201.032 176.028 201.032 177.754 198.656C180.211 195.75 182.894 193.436 185.779 190.968C189.82 187.388 193.535 183.478 197.312 179.625C203.129 173.752 208.893 168.101 215.418 163.02C217.863 161.108 220.219 159.115 222.566 157.085C242.033 140.304 263.641 125.646 286 113C286.779 112.558 287.558 112.115 288.361 111.66C341.098 81.902 398.016 62.6221 457.939 54.2871C459.872 54.0178 461.805 53.7397 463.737 53.4609C502.134 48.1583 543.661 48.2968 582 54ZM473 89C471.383 89.1934 471.383 89.1934 469.733 89.3906C436.351 93.4939 404.081 101.232 372.312 112.187C371.416 112.484 370.52 112.78 369.596 113.085C364.181 115.038 361.897 116.818 359 122C354.665 124.654 352.072 125.086 347.062 124.687C339.388 124.434 333.389 128.37 326.867 131.978C324.281 133.394 321.645 134.698 319 136C318.216 136.392 317.433 136.784 316.625 137.187C316.089 137.456 315.553 137.724 315 138C315 138.66 315 139.32 315 140C315.949 140.763 316.897 141.526 317.875 142.312C320.745 144.646 322.219 146.267 323 150C322.985 153.814 322.535 156.984 320.75 160.375C317.102 163.763 313.014 164.593 308.062 164.434C304.033 163.586 301.39 161.277 299 158C297.912 155.027 297.342 152.142 297 149C290.366 152.393 284.032 156.155 277.812 160.25C277.141 160.686 276.469 161.122 275.777 161.572C274.147 162.66 272.568 163.824 271 165C271 165.66 271 166.32 271 167C270.216 167.309 269.433 167.619 268.625 167.937C266.077 168.929 266.077 168.929 264 170C264 170.66 264 171.32 264 172C262.68 172.33 261.36 172.66 260 173C260 173.66 260 174.32 260 175C258.68 175.33 257.36 175.66 256 176C256 176.66 256 177.32 256 178C253.525 178.99 253.525 178.99 251 180C251 180.66 251 181.32 251 182C249.886 182.371 249.886 182.371 248.75 182.75C245.737 184.12 244.308 185.658 242 188C240.539 189.169 239.059 190.314 237.562 191.438C234.102 194.093 231.05 196.874 228 200C226.547 201.277 225.088 202.547 223.625 203.812C219.99 207.008 216.856 210.379 213.742 214.074C211.966 216.038 210.098 217.684 208.062 219.375C204.089 222.731 201.006 226.54 197.859 230.668C196.037 232.954 194.067 234.937 192 237C190.974 238.313 189.973 239.647 189 241C186.855 243.929 184.568 246.432 182 249C182 249.66 182 250.32 182 251C181.34 251 180.68 251 180 251C179.34 252.65 178.68 254.3 178 256C177.34 256 176.68 256 176 256C175.67 257.32 175.34 258.64 175 260C174.34 260 173.68 260 173 260C172.67 261.32 172.34 262.64 172 264C171.34 264 170.68 264 170 264C169.67 265.32 169.34 266.64 169 268C168.34 268 167.68 268 167 268C167 268.99 167 269.98 167 271C166.34 271 165.68 271 165 271C163.349 273.241 163.349 273.241 161.688 276.062C159.587 279.477 157.473 282.797 155.063 286C152.717 288.805 152.717 288.805 153 292C152.34 292 151.68 292 151 292C150.67 293.32 150.34 294.64 150 296C151.825 296.371 151.825 296.371 153.688 296.75C158.359 297.924 161.449 299.858 164.313 303.812C165.702 308.233 165.377 311.91 163.875 316.25C161.513 319.715 160.004 320.739 156 322C151.419 322.194 148.026 321.647 144.125 319.188C142.21 317.217 140.622 315.21 139 313C136.67 317.606 134.362 322.222 132.074 326.849C131.099 328.801 130.102 330.739 129.098 332.676C125.824 339.231 124.494 342.846 126 350C125.045 354.514 123.574 357.076 120 360C119.01 360.33 118.02 360.66 117 361C115.871 362.926 115.871 362.926 115.02 365.363C114.664 366.298 114.309 367.233 113.943 368.197C113.383 369.739 113.383 369.739 112.813 371.312C112.42 372.383 112.027 373.453 111.622 374.555C80.9363 459.931 74.2758 566.042 107 652C107.652 651.954 108.305 651.907 108.977 651.859C113.383 651.677 116.368 651.713 120.438 653.562C123.63 656.599 124.815 658.747 126 663C125.942 666.062 125.566 668.993 125 672C124.34 672 123.68 672 123 672C122.546 672.454 122.093 672.907 121.625 673.375C119.871 675.129 118.226 675.946 116 677C118.05 683.484 120.443 689.753 123.125 696C123.515 696.911 123.906 697.821 124.308 698.76C127.813 706.804 131.826 714.501 136.035 722.194C137.359 724.672 138.55 727.209 139.75 729.75C149.471 749.354 162.672 767.703 176 785C176.428 785.559 176.856 786.119 177.296 786.695C187.839 800.753 187.839 800.753 200.438 812.875C203.133 815.111 204.215 817.022 206 820C210.564 825.6 215.527 830.646 221.047 835.297C223.078 837.068 224.938 838.94 226.812 840.875C231.046 845.158 235.636 848.884 240.332 852.644C242.169 854.137 243.976 855.661 245.781 857.191C271.347 878.768 299.948 896.454 330.016 911.037C331.338 911.679 332.658 912.325 333.977 912.975C345.586 918.697 357.499 923.47 369.591 928.074C371.293 928.728 372.981 929.417 374.659 930.129C379.704 932.006 384.39 929.079 389 927C385.494 923.298 381.943 920.422 377.688 917.562C373.167 914.515 368.793 911.37 364.586 907.898C363.801 907.454 363.801 907.454 363 907C360.003 907.999 358.973 908.651 357 911C357 911.66 357 912.32 357 913C345.073 913.564 345.073 913.564 341 910C337.718 906.718 337.24 903.569 337 899C337.875 896.25 337.875 896.25 339 894C339.33 893.01 339.66 892.02 340 891C340.66 891 341.32 891 342 891C340.513 887.534 338.543 885.31 335.867 882.672C334.659 881.473 334.659 881.473 333.426 880.25C332.584 879.425 331.742 878.6 330.875 877.75C329.601 876.489 329.601 876.489 328.301 875.203C326.205 873.131 324.105 871.063 322 869C321.092 869.641 320.185 870.281 319.25 870.941C315.349 873.412 312.571 874.219 308 874C304.069 872.715 302.328 871.379 299.625 868.25C297.714 864.427 297.462 862.223 298 858C299.54 854.774 301.356 852.392 304 850C302.337 846.196 299.868 843.107 297.312 839.875C293.018 834.376 288.931 828.767 285 823C282.851 825.854 282.851 825.854 282.25 829.062C281 832 281 832 278.438 833.375C268.205 835.236 268.205 835.236 264.125 832.949C261.183 830.552 259.207 828.641 258.727 824.828C258.419 817.011 258.419 817.011 261.375 813.438C264.642 810.404 266.311 809.869 270.625 809.438C271.442 809.354 272.26 809.27 273.102 809.184C273.728 809.123 274.355 809.062 275 809C273.643 805.235 271.864 801.889 269.879 798.434C255.091 772.678 243.854 745.322 235 717C234.336 716.925 233.672 716.85 232.988 716.773C224.877 715.566 224.877 715.566 221.938 712C219.09 707.59 218.557 705.319 219 700C221.347 695.48 223.637 693.46 228 691C227.879 690.155 227.758 689.309 227.633 688.438C226.407 679.878 225.191 671.316 224 662.75C223.826 661.496 223.651 660.242 223.471 658.95C222.38 651.013 221.378 643.076 220.596 635.103C220.256 631.431 220.256 631.431 219 628C219.23 625.991 219.465 623.982 219.715 621.975C220.059 618.385 220.168 614.806 220.246 611.203C220.27 610.134 220.27 610.134 220.294 609.044C220.326 607.549 220.358 606.054 220.389 604.559C220.654 591.989 221.169 579.548 222.598 567.047C223.3 560.497 223.4 556.59 219.855 550.883C218.505 547.91 218.579 545.474 219.138 542.292C220.205 539.456 221.397 538.723 223.863 537.016C229.359 532.417 230.091 527.045 231.438 520.25C232.006 517.725 232.583 515.201 233.168 512.68C233.464 511.399 233.759 510.119 234.064 508.8C239.276 487.642 247.608 466.68 257.359 447.215C257.704 446.52 258.049 445.826 258.404 445.11C259.295 443.346 260.22 441.6 261.148 439.855C262.361 436.978 262.361 436.978 260.695 434.391C260.136 433.602 259.576 432.813 259 432C257.994 427.18 258.526 423.815 261 419.562C265.342 415.854 269.249 415 275 415C276.597 412.738 277.991 410.514 279.375 408.125C287.49 394.641 296.815 381.993 307 370C307.964 368.851 308.928 367.701 309.891 366.551C310.885 365.367 311.88 364.183 312.875 363C313.34 362.447 313.805 361.894 314.284 361.325C316.065 359.221 317.831 357.162 319.82 355.25C321.229 354.044 321.229 354.044 321 352C321.66 352 322.32 352 323 352C324.364 350.651 324.364 350.651 325.812 348.812C333.447 339.836 342.009 331.603 351 324C351.955 323.156 352.91 322.311 353.895 321.441C369.507 307.693 386.251 295.814 404 285C405.36 284.161 406.719 283.321 408.078 282.48C411.047 280.645 414.021 278.819 417 277C416.893 276.336 416.786 275.672 416.676 274.988C415.697 267.776 415.697 267.776 417.125 264.125C420.56 260.232 422.991 257.77 428.312 257.312C432.437 257.517 434.301 258.752 437.293 261.543C437.993 262.186 438.693 262.83 439.415 263.493C440.199 264.239 440.199 264.239 441 265C441.626 264.739 442.253 264.478 442.898 264.209C472.834 251.805 503.17 242.986 535 237C534.977 236.264 534.954 235.528 534.93 234.77C534.912 233.794 534.894 232.818 534.875 231.812C534.852 230.85 534.829 229.887 534.805 228.895C535.011 225.831 535.61 223.728 537 221C540.74 218.863 544.728 218.225 549 218C552.677 219.414 555.503 220.947 558 224C558.73 226.48 558.73 226.48 559.188 229.188C559.425 230.539 559.425 230.539 559.668 231.918C559.778 232.605 559.887 233.292 560 234C561.228 233.928 562.457 233.856 563.723 233.781C580.156 232.891 596.549 232.895 613 233C613.119 231.739 613.237 230.479 613.359 229.18C613.682 225.746 613.989 225.013 616.25 222.125C620.217 219.059 622.437 217.944 627.5 218.125C631.976 219.244 634.567 220.994 637.25 224.75C638.368 228.105 638.588 231.489 639 235C639.702 235.09 640.403 235.18 641.126 235.272C671.367 239.205 701.398 244.942 729.938 256C735.318 258.04 739.731 258.188 745.434 257.93C749.274 258.035 751.259 259.4 754 262C754.356 262.781 754.712 263.562 755.078 264.367C757.967 268.325 761.767 269.53 766.188 271.438C790.57 282.524 813.099 297.307 834 314C835.394 315.104 835.394 315.104 836.816 316.23C842.789 321.031 848.47 326.087 854.078 331.301C856.789 333.805 859.543 336.249 862.312 338.688C865.96 341.956 869.21 345.371 872.363 349.113C873.956 350.949 875.625 352.627 877.375 354.312C881.508 358.391 885.095 362.868 888.714 367.402C890.068 369.084 891.442 370.748 892.82 372.41C900.581 381.839 907.426 391.715 914 402C914.452 402.699 914.904 403.398 915.37 404.118C923.028 416.013 929.518 428.451 935.934 441.043C936.471 442.082 937.008 443.122 937.562 444.193C938.418 445.865 939.256 447.547 940.051 449.249C941.761 452.708 943.274 454.415 946.75 455.938C947.822 456.288 948.895 456.639 950 457C949.106 446.933 947.308 437.176 945.125 427.312C944.881 426.198 944.636 425.083 944.384 423.934C942.06 409.859 942.06 409.859 934.938 398.438C933.483 397.726 933.483 397.726 932 397C929.807 395.026 929.09 393.781 928.754 390.852C928.583 384.626 928.583 384.626 931 381C930.669 375.947 929.308 371.723 927.41 367.055C927.15 366.411 926.891 365.768 926.623 365.105C925.779 363.024 924.922 360.949 924.062 358.875C923.622 357.804 923.622 357.804 923.173 356.711C909.086 322.473 891.15 290.683 869 261C868.554 260.4 868.108 259.799 867.649 259.181C856.974 244.857 845.24 231.013 832.477 218.512C831 217 831 217 829.062 214.5C826.667 211.597 823.987 209.316 821.129 206.879C819.046 205.041 817.119 203.12 815.188 201.125C811.348 197.233 807.224 193.819 802.961 190.402C800.433 188.351 797.965 186.247 795.509 184.11C778.705 169.565 759.868 157.254 740.729 146.019C739.131 145.077 737.542 144.121 735.953 143.164C723.388 135.659 710.229 129.577 696.875 123.625C695.701 123.101 694.526 122.577 693.316 122.036C692.199 121.542 691.081 121.048 689.93 120.539C688.433 119.877 688.433 119.877 686.906 119.202C683.974 117.989 681.021 116.967 678 116C677.464 116.928 676.928 117.856 676.375 118.812C673.754 122.331 672.092 123.527 668 125C664.046 125.577 662.368 125.195 658.812 123.312C655.875 120.897 654.407 119.519 653 116C652.924 114.443 652.904 112.883 652.93 111.324C652.945 110.109 652.945 110.109 652.96 108.87C652.974 108.253 652.987 107.636 653 107C609.857 93.7584 566.316 86.7618 521.125 86.8125C519.63 86.8134 519.63 86.8134 518.104 86.8143C502.977 86.8392 488.032 87.1546 473 89ZM453 291C452.165 291.388 451.33 291.775 450.469 292.175C448.059 293.296 445.654 294.428 443.25 295.562C442.452 295.936 441.654 296.309 440.832 296.693C434.436 299.713 428.342 302.989 422.5 307C419.375 309.146 416.169 311.059 412.869 312.925C409.713 314.741 406.636 316.674 403.562 318.625C402.926 319.019 402.29 319.414 401.635 319.82C400.054 320.826 398.522 321.907 397 323C397 323.66 397 324.32 397 325C396.237 325.289 395.474 325.577 394.688 325.875C391.85 326.963 391.85 326.963 389 329C389 329.66 389 330.32 389 331C387.68 331.33 386.36 331.66 385 332C385 332.66 385 333.32 385 334C383.886 334.371 383.886 334.371 382.75 334.75C379.701 336.136 378.291 337.575 376 340C374.312 341.47 372.599 342.907 370.879 344.34C369.432 345.619 368.04 346.961 366.676 348.328C364.272 350.729 361.81 353.021 359.293 355.301C354.374 359.76 349.688 364.233 345.414 369.328C342.654 372.591 339.531 375.495 336.438 378.438C333.892 381.114 332.03 383.923 330 387C328.667 388.333 327.333 389.667 326 391C326 391.66 326 392.32 326 393C325.34 393 324.68 393 324 393C323.732 393.598 323.464 394.196 323.188 394.812C322.012 396.978 320.724 398.276 319 400C319 400.66 319 401.32 319 402C318.34 402 317.68 402 317 402C314.684 405.221 314.684 405.221 314 409C313.34 409 312.68 409 312 409C310.302 411.281 308.731 413.555 307.188 415.938C306.735 416.626 306.283 417.315 305.817 418.024C303.077 422.234 300.487 426.484 298.129 430.922C296.896 433.192 295.55 435.368 294.188 437.562C270.677 476.586 257.147 522.142 251 567C250.82 568.266 250.82 568.266 250.636 569.558C238.751 656.864 264.928 750.251 317.677 820.275C324.863 829.642 332.397 838.652 340.461 847.273C342.82 849.806 345.099 852.393 347.375 855C352.833 861.104 358.919 866.53 365 872C368.687 870.506 370.496 868.478 372.938 865.375C373.72 864.393 374.502 863.41 375.309 862.398C375.95 861.586 375.95 861.586 376.605 860.757C379.207 857.48 381.858 854.244 384.5 851C385.625 849.615 386.75 848.229 387.875 846.844C391.115 842.856 394.369 838.881 397.625 834.906C400.591 831.277 403.546 827.639 406.5 824C410.863 818.626 415.238 813.261 419.625 807.906C422.591 804.277 425.546 800.639 428.5 797C432.863 791.626 437.238 786.261 441.625 780.906C444.591 777.277 447.546 773.639 450.5 770C454.863 764.626 459.238 759.261 463.625 753.906C466.591 750.277 469.546 746.639 472.5 743C476.863 737.626 481.238 732.261 485.625 726.906C488.591 723.277 491.546 719.639 494.5 716C498.863 710.626 503.238 705.261 507.625 699.906C510.591 696.277 513.546 692.639 516.5 689C520.159 684.494 523.821 679.99 527.5 675.5C533.356 668.351 539.176 661.174 545 654C551.523 645.966 558.048 637.935 564.605 629.93C567.681 626.167 570.748 622.397 573.812 618.625C574.364 617.946 574.916 617.268 575.484 616.568C576.275 615.595 576.275 615.595 577.082 614.602C577.548 614.027 578.015 613.453 578.495 612.862C578.992 612.247 579.488 611.633 580 611C580.673 610.305 581.345 609.61 582.038 608.893C584.514 605.242 584.722 602.124 584.896 597.847C584.944 597.028 584.992 596.209 585.042 595.364C585.199 592.613 585.33 589.861 585.461 587.108C585.57 585.125 585.679 583.142 585.791 581.16C586.029 576.858 586.255 572.556 586.472 568.254C586.824 561.302 587.2 554.351 587.579 547.401C588.122 537.432 588.652 527.462 589.177 517.492C589.985 502.161 590.836 486.832 591.698 471.503C591.842 468.942 591.986 466.38 592.13 463.819C592.346 459.962 592.563 456.105 592.78 452.249C593.577 438.039 594.363 423.828 595.148 409.617C595.219 408.337 595.29 407.057 595.363 405.739C595.792 397.961 595.792 397.961 596.222 390.184C596.776 380.159 597.332 370.134 597.888 360.109C598.509 348.925 599.128 337.741 599.747 326.558C600.089 320.364 600.432 314.17 600.776 307.977C601.094 302.245 601.411 296.513 601.727 290.78C601.842 288.687 601.958 286.593 602.075 284.499C602.234 281.647 602.391 278.795 602.547 275.943C602.593 275.117 602.64 274.291 602.688 273.44C602.913 269.287 603.048 265.161 603 261C551.871 260.01 499.449 269.209 453 291ZM632 263C630.537 281.791 629.34 300.585 628.304 319.404C628.147 322.236 627.989 325.068 627.83 327.899C627.45 334.716 627.073 341.532 626.696 348.348C626.39 353.891 626.083 359.433 625.775 364.975C625.731 365.77 625.687 366.565 625.642 367.384C625.552 369 625.462 370.616 625.372 372.231C624.536 387.292 623.704 402.354 622.872 417.415C622.112 431.169 621.348 444.924 620.583 458.678C619.794 472.858 619.007 487.038 618.223 501.219C617.784 509.157 617.344 517.096 616.902 525.035C616.526 531.779 616.153 538.523 615.782 545.268C615.594 548.703 615.404 552.137 615.211 555.571C615.002 559.303 614.798 563.035 614.594 566.767C614.533 567.838 614.472 568.909 614.409 570.013C614.033 577.015 613.933 583.988 614 591C621.894 590.337 629.385 588.177 637.004 586.117C638.523 585.711 640.042 585.305 641.562 584.9C644.837 584.025 648.111 583.147 651.385 582.267C656.655 580.849 661.927 579.439 667.2 578.031C669.024 577.544 670.849 577.056 672.673 576.569C673.587 576.325 674.501 576.081 675.443 575.829C678.265 575.075 681.086 574.32 683.908 573.565C702.208 568.67 720.522 563.826 738.839 558.991C747.023 556.831 755.206 554.668 763.389 552.505C765.215 552.023 767.04 551.541 768.865 551.058C782.524 547.449 796.183 543.836 809.84 540.219C810.732 539.982 811.625 539.746 812.544 539.503C822.202 536.945 831.858 534.385 841.514 531.822C842.774 531.487 842.774 531.487 844.058 531.146C849.068 529.816 849.068 529.816 854.077 528.486C864.385 525.749 874.697 523.025 885.013 520.315C890.048 518.992 895.082 517.664 900.116 516.335C903.422 515.461 906.73 514.591 910.039 513.728C913.593 512.8 917.144 511.862 920.695 510.922C921.739 510.652 922.782 510.382 923.857 510.105C924.794 509.854 925.731 509.604 926.696 509.347C927.509 509.133 928.322 508.92 929.16 508.7C931.202 508.161 931.202 508.161 932 506C931.533 503.894 931.533 503.894 930.664 501.512C930.346 500.588 930.029 499.665 929.701 498.713C929.346 497.715 928.991 496.716 928.625 495.688C928.262 494.658 927.899 493.629 927.525 492.568C924.096 482.995 920.226 473.651 916.063 464.377C915.095 462.212 914.152 460.038 913.215 457.859C899.301 426.242 878.287 397.314 855 372C853.499 370.313 851.999 368.626 850.5 366.938C796.014 306.481 715.789 272.182 636 263C634.68 263 633.36 263 632 263ZM952 476C953 478 953 478 953 478L952 476ZM929.519 537.465C928.87 537.635 928.22 537.805 927.551 537.98C925.374 538.552 923.201 539.137 921.027 539.723C919.47 540.135 917.912 540.546 916.354 540.956C912.106 542.078 907.861 543.211 903.617 544.347C899.09 545.556 894.56 546.754 890.03 547.953C882.442 549.962 874.855 551.979 867.27 554C856.786 556.793 846.298 559.572 835.809 562.348C832.497 563.224 829.185 564.101 825.873 564.978C825.051 565.195 824.23 565.412 823.384 565.636C814.868 567.891 806.353 570.151 797.839 572.411C778.802 577.463 759.763 582.506 740.722 587.544C738.51 588.129 736.297 588.715 734.084 589.3C732.986 589.591 731.889 589.881 730.758 590.18C723.094 592.208 715.43 594.239 707.766 596.27C703.521 597.395 699.276 598.52 695.031 599.645C693.481 600.055 693.481 600.055 691.9 600.474C678.875 603.925 665.845 607.355 652.807 610.759C648.236 611.954 643.666 613.154 639.096 614.354C634.986 615.433 630.873 616.503 626.759 617.566C623.739 618.348 620.723 619.144 617.707 619.938C616.647 620.208 615.587 620.479 614.494 620.757C613.06 621.139 613.06 621.139 611.597 621.527C610.774 621.741 609.952 621.955 609.104 622.176C606.759 623.094 605.556 624.033 604 626C604 626.66 604 627.32 604 628C603.01 628.33 602.02 628.66 601 629C600.315 630.324 599.651 631.659 599 633C597.667 634.333 596.333 635.667 595 637C595 637.66 595 638.32 595 639C594.34 639 593.68 639 593 639C591.321 641.114 591.321 641.114 589.625 643.75C587.804 646.494 586.118 648.883 583.773 651.203C581.766 652.816 581.766 652.816 582 655C581.01 655.33 580.02 655.66 579 656C578.315 657.324 577.651 658.659 577 660C575.667 661.333 574.333 662.667 573 664C573 664.66 573 665.32 573 666C572.34 666 571.68 666 571 666C569.321 668.114 569.321 668.114 567.625 670.75C565.804 673.494 564.118 675.883 561.773 678.203C559.766 679.816 559.766 679.816 560 682C559.01 682.33 558.02 682.66 557 683C556.315 684.324 555.651 685.659 555 687C553.667 688.333 552.333 689.667 551 691C551 691.66 551 692.32 551 693C550.34 693 549.68 693 549 693C547.321 695.114 547.321 695.114 545.625 697.75C543.804 700.494 542.118 702.883 539.773 705.203C537.766 706.816 537.766 706.816 538 709C537.01 709.33 536.02 709.66 535 710C534.315 711.324 533.651 712.659 533 714C531.667 715.333 530.333 716.667 529 718C529 718.66 529 719.32 529 720C528.34 720 527.68 720 527 720C525.321 722.114 525.321 722.114 523.625 724.75C521.804 727.494 520.118 729.883 517.773 732.203C515.766 733.816 515.766 733.816 516 736C515.01 736.33 514.02 736.66 513 737C512.315 738.324 511.651 739.659 511 741C509.667 742.333 508.333 743.667 507 745C507 745.66 507 746.32 507 747C506.34 747 505.68 747 505 747C503.321 749.114 503.321 749.114 501.625 751.75C499.804 754.494 498.118 756.883 495.773 759.203C493.766 760.816 493.766 760.816 494 763C493.34 763 492.68 763 492 763C490.974 764.651 489.977 766.32 489 768C488.004 769.004 487.004 770.004 486 771C484.526 772.758 483.069 774.53 481.625 776.312C479.098 779.429 476.561 782.526 473.938 785.562C471.793 787.742 471.793 787.742 472 790C471.34 790 470.68 790 470 790C468.974 791.651 467.977 793.32 467 795C466.004 796.004 465.004 797.004 464 798C462.526 799.758 461.069 801.53 459.625 803.312C457.098 806.429 454.561 809.526 451.938 812.562C449.793 814.742 449.793 814.742 450 817C449.34 817 448.68 817 448 817C446.321 819.114 446.321 819.114 444.625 821.75C442.322 825.22 439.97 828.09 437 831C436.137 832.145 435.3 833.31 434.5 834.5C432.562 837.302 430.411 839.589 428 842C428 842.66 428 843.32 428 844C427.34 844 426.68 844 426 844C424.321 846.114 424.321 846.114 422.625 848.75C420.322 852.22 417.97 855.09 415 858C414.137 859.145 413.3 860.31 412.5 861.5C410.562 864.302 408.411 866.589 406 869C406 869.66 406 870.32 406 871C405.34 871 404.68 871 404 871C402.321 873.114 402.321 873.114 400.625 875.75C398.804 878.494 397.118 880.883 394.773 883.203C392.766 884.816 392.766 884.816 393 887C392.01 887.33 391.02 887.66 390 888C389.67 888.99 389.34 889.98 389 891C402.36 902.456 417.747 911.325 433 920C433.891 920.511 433.891 920.511 434.8 921.033C456.299 933.287 479.419 941.761 503 949C504.066 949.34 505.133 949.68 506.231 950.03C522.538 955.16 537.053 955.59 554 954C555.348 953.882 556.696 953.764 558.044 953.646C650.793 945.393 741.494 908.024 810.199 844.555C812.353 842.59 814.53 840.679 816.738 838.777C821.519 834.607 826.014 830.17 830.5 825.688C831.322 824.877 832.145 824.067 832.992 823.232C833.768 822.458 834.544 821.684 835.344 820.887C836.047 820.188 836.75 819.489 837.475 818.768C839.218 817.137 839.218 817.137 839 815C839.66 815 840.32 815 841 815C842.414 813.427 843.756 811.789 845.062 810.125C848.019 806.421 851.018 802.84 854.25 799.375C873.262 778.415 888.489 753.757 902 729C902.454 728.173 902.908 727.345 903.375 726.493C936.305 666.124 954.26 605.188 940 537C936.162 535.576 933.404 536.432 929.519 537.465ZM401 934C401.66 935.65 402.32 937.3 403 939C405.31 939.33 407.62 939.66 410 940C407.119 937.599 404.436 935.527 401 934Z" fill="#00371D"/>
<path d="M740.242 709.809C748.207 717.037 753.197 727.447 754.203 738.163C754.882 753.482 752.502 766.44 741.93 778.328C729.061 790.413 707.732 798.23 690 798C690.667 802.894 691.343 807.787 692.026 812.679C692.257 814.342 692.486 816.005 692.713 817.669C693.04 820.065 693.374 822.461 693.711 824.855C693.81 825.595 693.909 826.335 694.011 827.097C694.563 830.964 695.118 834.547 697 838C700.281 839.153 700.281 839.153 704.062 839.625C707.91 840.227 707.91 840.227 711 841C712.283 844.85 712.066 847.947 712 852C704.75 853.543 697.49 854.717 690.148 855.727C689.05 855.879 687.951 856.032 686.819 856.189C684.511 856.508 682.203 856.826 679.895 857.142C676.377 857.625 672.861 858.117 669.344 858.609C667.091 858.92 664.839 859.23 662.586 859.539C661.543 859.686 660.5 859.833 659.426 859.984C653.899 860.732 648.579 861.257 643 861C640.839 858.839 641.276 853.799 641 851C644.3 849.02 647.6 847.04 651 845C650.241 832.157 648.404 819.477 646.656 806.738C646.324 804.295 645.991 801.853 645.659 799.41C644.965 794.317 644.269 789.224 643.571 784.132C642.675 777.595 641.785 771.056 640.898 764.517C640.214 759.486 639.527 754.455 638.839 749.424C638.509 747.011 638.181 744.598 637.853 742.186C637.397 738.829 636.936 735.474 636.475 732.118C636.34 731.117 636.204 730.116 636.065 729.085C635.876 727.721 635.876 727.721 635.683 726.329C635.575 725.537 635.466 724.744 635.355 723.928C635.079 721.926 635.079 721.926 634 720C631.475 719.19 628.926 718.593 626.348 717.977C624 717 624 717 622.684 715.336C621.76 712.18 621.874 709.268 622 706C629.94 704.719 637.89 703.501 645.846 702.32C647.311 702.102 648.775 701.884 650.24 701.664C717.642 691.579 717.642 691.579 740.242 709.809ZM678 713C678.798 719.291 679.598 725.582 680.399 731.872C680.67 734.001 680.94 736.13 681.21 738.26C682.656 749.654 684.118 761.045 685.637 772.43C685.759 773.366 685.881 774.302 686.008 775.267C686.123 776.125 686.239 776.983 686.358 777.867C686.458 778.62 686.558 779.372 686.662 780.148C686.927 782.086 686.927 782.086 688 784C696.133 782.864 703.47 781.623 709.375 775.562C716.961 763.6 714.044 747.181 711.184 734.016C709.038 725.647 706.436 718.807 698.937 714.063C692.068 711.578 685.086 711.13 678 713Z" fill="#00371D"/>
<path d="M475 455C476.004 460.443 477 465.887 477.991 471.333C478.328 473.184 478.668 475.035 479.009 476.885C479.501 479.55 479.985 482.216 480.469 484.883C480.622 485.705 480.775 486.527 480.933 487.374C481.697 491.628 482.276 495.656 482 500C480.365 501.635 478.574 501.399 476.32 501.555C473.259 501.519 471.607 501.48 469.183 499.563C467.571 497.493 466.213 495.382 464.875 493.125C463.861 491.564 462.846 490.004 461.828 488.445C461.347 487.684 460.865 486.922 460.369 486.138C458.566 483.322 456.655 480.657 454.625 478C454.06 477.237 453.496 476.474 452.914 475.687C450.314 473.396 448.433 473.358 445 473C442.682 473.176 440.37 473.442 438.07 473.777C436.781 473.961 435.492 474.145 434.164 474.334C432.818 474.535 431.471 474.736 430.125 474.937C428.755 475.136 427.386 475.333 426.016 475.529C422.676 476.011 419.337 476.502 416 477C416.597 488.901 417.995 500.63 419.562 512.438C419.799 514.248 420.036 516.059 420.271 517.869C420.843 522.247 421.42 526.624 422 531C425.105 530.525 428.209 530.044 431.312 529.562C432.194 529.428 433.075 529.293 433.982 529.154C434.83 529.022 435.678 528.89 436.551 528.754C437.331 528.633 438.111 528.513 438.915 528.389C441.183 528.015 441.183 528.015 444 527C445.394 523.885 446.54 520.765 447.662 517.547C449.112 513.614 450.171 510.94 454 509C457.75 508.812 457.75 508.812 461 509C462.614 514.196 463.587 519.247 464.289 524.637C464.397 525.439 464.505 526.24 464.617 527.067C464.843 528.75 465.066 530.433 465.287 532.116C465.625 534.691 465.972 537.265 466.32 539.838C466.54 541.479 466.758 543.12 466.977 544.762C467.08 545.528 467.183 546.295 467.289 547.085C467.726 550.435 468 553.614 468 557C464.239 558.203 460.924 558.462 457 558C454.813 555.834 453.306 554.064 451.625 551.562C451.188 550.951 450.751 550.339 450.301 549.709C449.187 548.149 448.092 546.575 447 545C445.984 543.751 445.984 543.751 443.867 543.978C442.492 544.049 442.492 544.049 441.09 544.121C440.1 544.169 439.111 544.218 438.092 544.268C437.051 544.324 436.01 544.38 434.937 544.438C433.893 544.49 432.848 544.542 431.771 544.596C429.181 544.726 426.59 544.861 424 545C425.091 552.798 426.195 560.594 427.308 568.389C427.686 571.042 428.061 573.696 428.431 576.351C428.964 580.159 429.508 583.966 430.055 587.773C430.219 588.966 430.384 590.159 430.554 591.388C430.714 592.489 430.874 593.59 431.039 594.724C431.176 595.697 431.314 596.669 431.456 597.671C431.825 600.177 431.825 600.177 434 602C436.17 602.59 438.362 603.101 440.562 603.562C446.903 604.903 446.903 604.903 448 606C448.232 607.515 448.412 609.038 448.562 610.562C448.646 611.389 448.73 612.215 448.816 613.066C448.877 613.704 448.938 614.343 449 615C445.025 616.42 441.269 617.385 437.09 617.961C435.948 618.121 434.807 618.281 433.631 618.446C432.412 618.611 431.193 618.776 429.937 618.945C428.673 619.12 427.408 619.295 426.105 619.475C423.436 619.842 420.767 620.207 418.097 620.569C414.686 621.031 411.277 621.501 407.869 621.974C404.601 622.427 401.331 622.874 398.062 623.32C396.844 623.489 395.625 623.658 394.369 623.832C393.227 623.985 392.086 624.139 390.91 624.297C389.911 624.433 388.912 624.57 387.883 624.71C384.902 625.01 381.994 625.05 379 625C377.717 621.15 377.934 618.053 378 614C380.97 612.35 383.94 610.7 387 609C386.427 596.067 384.671 583.35 382.875 570.539C382.564 568.295 382.254 566.051 381.945 563.807C381.134 557.941 380.318 552.076 379.5 546.211C378.189 536.806 376.889 527.399 375.586 517.992C375.133 514.724 374.678 511.455 374.222 508.186C373.942 506.173 373.663 504.16 373.383 502.147C373.194 500.8 373.194 500.8 373.002 499.426C372.244 493.959 371.587 488.489 371 483C367.37 482.34 363.74 481.68 360 481C358.586 477.2 357.651 474.071 358 470C359.539 468.461 361.163 468.596 363.301 468.304C364.229 468.175 365.157 468.045 366.113 467.913C367.653 467.705 367.653 467.705 369.224 467.494C370.836 467.272 370.836 467.272 372.48 467.045C376.054 466.554 379.629 466.07 383.203 465.586C385.678 465.249 388.154 464.912 390.629 464.574C395.827 463.867 401.026 463.163 406.225 462.461C412.232 461.65 418.237 460.83 424.242 460.005C430.018 459.213 435.795 458.429 441.572 457.649C444.03 457.316 446.488 456.98 448.945 456.642C452.382 456.169 455.82 455.707 459.259 455.248C460.277 455.105 461.296 454.963 462.345 454.816C463.284 454.693 464.224 454.57 465.191 454.442C466.004 454.332 466.817 454.222 467.654 454.108C470.26 453.988 472.471 454.393 475 455Z" fill="#00361D"/>
<path d="M784 356C785.088 356.208 786.176 356.415 787.297 356.629C790 358 790 358 791.238 361.395C791.514 362.926 791.765 364.462 792 366C792.367 367.879 792.736 369.758 793.105 371.637C793.469 373.653 793.83 375.67 794.188 377.688C794.473 379.216 794.473 379.216 794.764 380.775C794.938 381.761 795.113 382.746 795.293 383.762C795.453 384.648 795.613 385.535 795.778 386.448C796.016 389.182 795.664 391.349 795 394C791.939 394.807 789.167 395.259 786 395C783.194 393.22 781.417 390.826 779.438 388.188C778.883 387.502 778.329 386.817 777.757 386.11C775.32 383.08 772.984 379.979 770.637 376.879C765.59 370.199 765.59 370.199 758 367C750.009 366.287 742.412 366.722 735 370C734.34 370.66 733.68 371.32 733 372C732.01 372 731.02 372 730 372C730 372.66 730 373.32 730 374C728.35 375.354 726.683 376.687 725 378C724.67 378.66 724.34 379.32 724 380C723.34 380 722.68 380 722 380C721.812 380.843 721.812 380.843 721.621 381.703C720.956 384.163 720.053 386.403 719.062 388.75C708.73 414.356 714.005 448.957 724 474C728.92 484.799 734.567 494.154 745.875 498.812C756.631 502.017 769.042 501.064 779 496C779.828 495.587 780.657 495.175 781.51 494.749C784.512 492.64 785.042 491.304 786.133 487.844C786.464 486.82 786.795 485.797 787.137 484.742C787.463 483.672 787.789 482.602 788.125 481.5C788.626 479.942 788.626 479.942 789.137 478.352C791.278 471.618 793.194 464.831 795 458C798.736 456.961 802.118 456.853 806 457C809.055 460.055 808.571 469.792 809.059 474.091C809.269 475.901 809.491 477.71 809.723 479.518C810.058 482.12 810.357 484.725 810.648 487.332C810.759 488.139 810.869 488.947 810.982 489.779C811.216 492.073 811.216 492.073 811 496C808.713 498.425 808.713 498.425 806 500C804.989 500.619 803.979 501.238 802.938 501.875C801.628 502.59 800.316 503.297 799 504C798.169 504.465 797.337 504.931 796.48 505.41C774.129 517.366 747.483 520.433 723 514C704.084 508.059 688.654 495.13 678.993 477.909C672.117 464.692 668.742 449.813 668 435C667.938 433.935 667.938 433.935 667.875 432.848C667.231 411.24 674.942 392.12 689.534 376.352C713.699 351.475 751.95 345.742 784 356Z" fill="#00361D"/>
<path d="M240.312 220.25C243.776 223.794 244.794 226.067 245.312 230.937C244.848 235.487 243.407 238.725 240 241.812C235.988 244.194 232.586 244.316 228 244C223.89 242.184 221.333 239.833 219 236C217.631 231.253 217.453 228.094 219.687 223.625C225.429 217.107 232.669 214.307 240.312 220.25Z" fill="#00341B"/>
<path d="M235 375C238.82 377.057 241.954 379.123 244 383C245.061 387.622 245.215 390.142 244.062 394.75C241.385 398.969 238.795 400.688 234 402C229.53 402.409 226.189 401.475 222.625 398.75C219.446 395.42 218.157 393.496 217.867 388.895C217.974 385.339 218.244 382.909 220.562 380.121C225.375 375.96 228.472 374.456 235 375Z" fill="#00341B"/>
<path d="M237 770C240.277 771.85 242.513 774.136 244.375 777.438C245.5 782.049 245.527 785.429 243.375 789.688C241.17 793.184 238.976 794.675 235 796C230.679 796.54 228.604 796.325 224.75 794.25C220.677 790.917 218.952 788.831 218.063 783.625C217.768 780.038 218 779 219.688 775.625C224.774 769.851 229.34 767.886 237 770Z" fill="#00341B"/>
<path d="M237 297C240.213 298.814 242.443 301.128 244.438 304.25C245.273 308.335 245.131 311.979 244 316C241.175 319.688 238.495 321.794 234 323C230.042 323.505 228.346 323.19 224.813 321.25C220.677 317.942 218.957 315.858 218.063 310.625C217.768 307.038 218 306 219.688 302.625C224.774 296.851 229.34 294.886 237 297Z" fill="#00341B"/>
<path d="M511 99C514.82 101.057 517.954 103.123 520 107C521.406 112.623 521.274 116.226 518.359 121.297C515.978 124.28 513.642 125.089 510 126C505.543 126.267 502.186 125.488 498.625 122.75C495.446 119.42 494.157 117.496 493.867 112.895C493.974 109.339 494.244 106.909 496.562 104.121C501.375 99.9605 504.472 98.456 511 99Z" fill="#00341B"/>
<path d="M435.188 100.625C439.347 104.137 441.705 106.969 442.5 112.437C441.897 116.732 440.866 119.72 438 123C433.57 125.726 429.97 126.542 424.926 125.641C420.664 124.223 417.93 121.496 415.563 117.687C414.634 113.252 414.731 109.154 417.047 105.223C422.009 98.9593 427.73 96.823 435.188 100.625Z" fill="#00341B"/>
<path d="M161.312 693.312C164.865 696.865 165.85 698.386 166.312 703.375C165.961 707.458 165.324 709.626 163 713C159.635 715.808 156.727 716.912 152.375 717.437C147.542 716.811 145.197 715.164 141.75 711.812C139.506 708.206 138.792 705.237 139 701C140.631 696.289 142.854 693.73 147 691C151.91 688.872 157.221 690.062 161.312 693.312Z" fill="#00341B"/>
<path d="M121.813 495.625C125.037 499.126 127.104 502.365 126.91 507.277C125.988 512.558 124.33 515.621 120 519C115.512 520.496 111.662 520.773 107.313 518.75C103.834 516.117 101.4 514.199 100 510C99.223 503.34 99.223 503.34 101.164 499.992C106.907 492.953 113.71 490.943 121.813 495.625Z" fill="#00341B"/>
<path d="M316 297C319.511 298.913 321.638 301.275 323.438 304.875C324.292 309.62 323.693 313.307 321.875 317.75C318.673 321.593 314.787 322.745 309.938 323.437C305.074 322.713 301.112 319.767 298 316C296.509 311.526 296.257 307.681 298.188 303.312C303.122 297.017 308.191 294.859 316 297Z" fill="#00341B"/>
<path d="M713.312 220.25C716.776 223.794 717.794 226.067 718.312 230.938C717.935 234.636 717.013 236.877 715 240C712.438 241.813 712.438 241.813 710 243C709.34 243.33 708.68 243.66 708 244C702.986 244.378 699.995 244.131 696 241C692.511 237.607 691.269 234.739 690.902 229.988C691.125 225.446 693.244 222.718 696.438 219.688C701.963 216.049 707.934 216.068 713.312 220.25Z" fill="#00341B"/>
<path d="M158.688 376.188C161.847 378.664 164.202 381.403 166 385C166.485 389.945 165.976 393.353 163.324 397.484C160.906 400.253 158.495 401.068 155 402C150.932 402.178 147.75 401.433 144.188 399.375C140.528 395.402 139 391.853 139 386.438C140.419 381.559 142.721 378.672 146.875 375.625C151.079 374.389 154.673 374.414 158.688 376.188Z" fill="#00341B"/>
<path d="M791.75 219.688C794.881 222.905 796.856 225.607 797.133 230.211C796.894 234.447 796.363 236.539 793.687 239.938C788.921 243.596 786.155 244.54 780 244C775.308 241.927 772.287 238.574 770 234C769.451 228.291 770.374 225.432 774 221C779.368 216.136 785.487 215.844 791.75 219.688Z" fill="#00341B"/>
<path d="M434.688 179.188C437.847 181.664 440.202 184.403 442 188C442.402 193.22 441.9 196.599 439 201C435.263 204.011 431.766 204.836 427 205C422.277 203.779 419.761 202.155 417.063 198.188C415.097 194.628 414.197 192.102 415 188C419.499 180.089 425.2 174.996 434.688 179.188Z" fill="#00341B"/>
<path d="M236 454C240.144 456.466 243.246 459.457 245 464C245.235 468.387 244.535 472.053 242.375 475.875C238.367 479.461 234.834 481 229.437 481C224.414 479.539 221.435 477.246 218.562 472.75C217.708 468.572 217.599 465.07 219 461C223.248 455.102 228.765 451.912 236 454Z" fill="#00341C"/>
<path d="M318.75 219.625C321.959 223.012 323.826 226.312 324.133 231.055C323.88 234.993 323.219 236.728 320.688 239.875C315.952 243.62 313.173 244.541 307 244C302.308 241.927 299.287 238.574 297 234C296.622 228.986 296.869 225.995 300 222C305.854 216.597 311.527 215.357 318.75 219.625Z" fill="#00341B"/>
<path d="M750.004 178.98C753.372 181.266 755.482 183.147 757 187C757.741 191.742 757.438 195.17 755.188 199.438C751.854 203.343 749.149 204.52 744.055 205.023C739.306 204.969 736.528 202.471 733.125 199.438C730.468 195.979 730.289 192.672 730.508 188.406C731.454 183.78 734.097 181.443 737.812 178.625C742.089 177.403 745.977 177.01 750.004 178.98Z" fill="#00331B"/>
<path d="M590 178C593.852 180.035 596.902 182.136 599 186C600.49 191.64 599.748 194.897 597 200C594.227 203.338 591.506 204.035 587.348 204.84C583.554 205.099 581.2 203.945 578 202C573.996 197.679 572.681 194.976 572.789 189.027C573.249 184.61 575.428 182.492 578.687 179.687C582.701 177.643 585.586 177.119 590 178Z" fill="#00341B"/>
<path d="M277.004 178.98C280.372 181.266 282.482 183.147 284 187C284.741 191.742 284.438 195.17 282.188 199.438C278.854 203.343 276.149 204.52 271.055 205.023C266.306 204.969 263.528 202.471 260.125 199.438C257.468 195.979 257.289 192.672 257.508 188.406C258.454 183.78 261.097 181.443 264.812 178.625C269.089 177.403 272.977 177.01 277.004 178.98Z" fill="#00341B"/>
<path d="M590 99C593.828 101.061 596.905 103.142 599 107C600.486 112.624 599.857 115.952 597 121C593.709 124.573 590.716 125.733 585.988 126.098C582.717 125.937 580.677 124.825 578 123C574.255 118.851 572.48 115.954 572.512 110.238C573.458 105.899 576.709 102.826 580 100C583.619 98.7936 586.192 98.6773 590 99Z" fill="#00341B"/>
<path d="M157 454C161.092 456.632 164.442 459.327 166 464C166.394 469.226 165.905 472.592 163 477C159.262 480.011 155.776 480.919 151 481C147.088 479.96 144.106 478.396 141.57 475.195C139.66 471.809 139.012 469.351 138.875 465.437C140.308 461.059 142.548 458.04 146 455C149.791 453.736 153.092 453.134 157 454Z" fill="#00341C"/>
<path d="M395 218C398.828 221.093 401.428 224.443 403.125 229.063C402.915 234.002 401.161 237.622 398 241.375C394.751 244.015 391.345 244.508 387.203 244.492C382.881 243.527 379.9 240.196 377 237C375.238 233.477 375.336 229.836 376 226C378.088 222.273 380.786 219.766 384.375 217.5C388.182 216.775 391.384 216.599 395 218Z" fill="#00341B"/>
<path d="M394 139C398.242 140.715 400.047 142.9 402 147C403.694 151.356 402.494 154.75 400.957 158.977C399.747 161.534 398.528 162.736 396 164C391.55 165.483 387.285 166.111 382.992 164.023C378.951 161.267 376.545 158.835 375.594 153.887C375.396 149.246 375.823 146.611 378.875 143C383.398 138.28 387.687 138.452 394 139Z" fill="#00331B"/>
<path d="M906 336C910.916 338.367 913.186 340.86 915 346C915.61 349.662 915.61 351.926 913.758 355.188C909.769 360.744 909.769 360.744 906 362C902.031 362.608 898.504 362.844 894.926 360.836C891.527 358.057 888.843 355.427 888 351C887.858 346.374 888.379 343.751 891.375 340.125C896.46 336.009 899.589 335.123 906 336Z" fill="#00341B"/>
<path d="M197 336C200.434 338 203.212 340.424 205 344C205.549 349.006 205.52 352.921 203.313 357.5C199.707 361.398 197.3 361.876 192.063 362.375C187.763 362.253 185.283 360.825 182 358C178.896 354.378 178.372 350.934 178.504 346.289C179.376 342.265 181.958 339.648 185 337C188.757 335.121 192.92 335.336 197 336Z" fill="#00331B"/>
<path d="M513.688 179.188C517.576 182.235 520.05 184.961 521 189.875C521.28 193.685 520.548 196.282 518.422 199.449C515.723 202.393 512.883 204.064 509 205C503.941 205.008 500.835 203.714 497 200.438C494.556 196.237 493.686 192.848 494 188C495.578 184.262 497.956 181.663 501 179C505.474 177.509 509.319 177.257 513.688 179.188Z" fill="#00341B"/>
<path d="M158 612C161.403 613.73 163.455 616.059 165.375 619.375C166.587 624.467 166.667 627.778 164.125 632.438C163.424 633.283 162.723 634.129 162 635C161.34 635 160.68 635 160 635C160 635.66 160 636.32 160 637C155.899 638.367 152.279 638.752 148 638C144.274 635.909 141.767 633.215 139.5 629.625C138.773 625.81 138.624 622.629 140 619C144.632 612.624 150.267 610.151 158 612Z" fill="#00341B"/>
<path d="M198 573C201.582 575.21 203.4 577.155 205 581C205.572 585.156 205.422 588.882 203.937 592.813C200.728 596.436 197.575 598.645 192.789 599.305C188.025 599.191 185.29 597.887 181.937 594.5C179.002 590.707 178.149 587.799 178.582 583.039C179.544 578.348 181.344 576.498 185.125 573.625C189.459 571.366 193.387 571.641 198 573Z" fill="#00341B"/>
<path d="M119 573C123.713 575.664 125.436 578.873 127 584C127 588.243 126.302 590.985 123.75 594.313C120.204 597.778 117.912 598.756 113.062 599.375C107.845 598.736 104.987 596.143 101.625 592.25C99.6856 588.371 98.9148 585.203 100 581C104.749 573.171 110.195 570.858 119 573Z" fill="#00341B"/>
<path d="M870.812 298.625C874.472 302.599 876 306.147 876 311.563C874.539 316.586 872.246 319.565 867.75 322.438C863.628 323.281 860.02 323.356 856 322C851.787 318.496 849.209 314.762 848.562 309.313C848.611 304.84 850.295 302.546 853.363 299.414C858.706 294.798 864.908 295.213 870.812 298.625Z" fill="#00341C"/>
<path d="M278.313 258.688C281.67 261.576 283.644 263.628 284.316 268.109C284.599 273.544 283.695 276.791 280 281C275.572 283.717 271.046 283.913 266 283C262.569 280.988 259.79 278.58 258 275C257.489 270.942 257.083 266.804 258.977 263.078C264.209 256.594 270.849 254.885 278.313 258.688Z" fill="#00341B"/>
<path d="M199.312 258.687C202.67 261.576 204.644 263.628 205.316 268.109C205.599 273.544 204.695 276.791 201 281C196.568 283.719 192.05 283.906 187 283C183.021 280.732 180.455 278.365 179 274C178.498 270.231 178.163 266.587 179.977 263.148C185.216 256.623 191.792 254.856 199.312 258.687Z" fill="#00341B"/>
<path d="M710 139C713.379 140.669 715.41 143.076 717.438 146.25C718.272 150.332 718.137 153.982 717 158C713.216 162.807 710.168 164.716 704.188 165.5C699.811 165.394 697.479 163.638 694.414 160.637C691.427 157.179 690.807 154.463 691.125 150C691.753 146.082 693.117 143.8 696 141C700.469 138.304 704.918 138.215 710 139Z" fill="#00341C"/>
<path d="M196 730C200.359 732.221 203.168 734.421 205 739C205.719 743.793 205.466 747.084 203.25 751.438C200.58 754.478 198.651 755.712 194.668 756.406C189.81 756.59 186.759 756.37 182.938 753.188C179.645 750.05 179.047 747.729 178.75 743.125C178.821 739.274 179.475 737.029 182 734C186.483 730.142 190.247 728.863 196 730Z" fill="#00331B"/>
<path d="M200.844 417.348C204.192 420.688 205.4 423.384 205.563 428.125C205.288 432.141 204.781 434.941 202 438C197.504 441.032 193.296 441.951 188 441C183.641 438.779 180.832 436.579 179 432C178.25 427.979 178.129 424.584 180.137 420.934C185.735 413.896 193.299 411.833 200.844 417.348Z" fill="#00331B"/>
<path d="M120 416C123.441 418.812 125.554 421.767 127.062 425.938C126.977 430.124 126.217 433.419 124 437C120.795 440.027 117.299 441.233 112.937 441.5C108.429 440.927 106.392 439.998 103 437C100.084 432.627 99.4313 429.213 100 424C101.818 419.886 104.306 417.523 108 415C112.248 413.581 115.964 414.172 120 416Z" fill="#00341C"/>
<path d="M354 257C357.471 258.67 360.051 260.804 362.437 263.812C363.685 268.662 363.458 272.65 361.875 277.312C359.509 280.704 357.924 281.692 354 283C349.684 283.548 346.169 283.483 342.125 281.812C338.575 278.784 337.271 276.066 336.125 271.562C335.927 265.914 337.89 263.216 341.625 259.125C345.941 256.408 349.028 255.912 354 257Z" fill="#00341B"/>
<path d="M669 178C673.36 180.221 676.202 182.405 678 187C678.621 191.122 678.922 195.074 677.086 198.91C674.309 202.556 671.442 204.201 667 205C660.884 204.891 658.178 203.178 654 199C651.694 195.961 651.578 192.806 651.684 189.027C652.371 184.623 654.935 181.887 658.25 179.125C661.898 177.632 665.152 177.321 669 178Z" fill="#00341C"/>
<path d="M631 139C634.173 140.662 636.211 142.96 638.375 145.813C639.888 151.11 639.676 154.739 637.125 159.5C636.424 160.325 635.723 161.15 635 162C634.34 162 633.68 162 633 162C633 162.66 633 163.32 633 164C628.226 165.591 623.85 165.799 619.25 163.813C615.413 160.722 613.337 158.347 612.125 153.5C611.965 149.015 612.498 146.834 615.344 143.359C620.002 138.657 624.533 137.562 631 139Z" fill="#00341B"/>
<path d="M196 651C200.359 653.221 203.168 655.421 205 660C205.489 665.136 205.723 669.894 202.312 674.062C198.563 677.204 195.423 678 190.562 678C186.034 676.729 183.097 674.517 180 671C178.757 667.271 178.472 663.873 179 660C182.702 652.734 187.774 649.548 196 651Z" fill="#00351B"/>
<path d="M827 257C831.36 259.221 834.133 261.436 836 266C836.529 271.554 836.289 275.286 833 280C828.967 282.88 825.12 283.662 820.25 283.473C816.099 282.601 813.515 280.336 811 277C808.817 272.695 808.737 269.877 810.125 265.25C814.223 258.147 818.764 255.877 827 257Z" fill="#00341B"/>
<path d="M473 218C476.208 220.183 479.245 222.49 481 226C481.585 230.797 481.468 234.143 479.125 238.437C475.32 243.026 473.516 243.715 467.687 244.375C463.064 243.905 460.264 242.273 457 239C454.437 234.825 454.076 230.773 455 226C457.114 222.252 459.794 219.742 463.437 217.5C467.059 216.793 469.423 217.013 473 218Z" fill="#00341B"/>
<path d="M157 533C161.916 535.367 164.186 537.86 166 543C166.256 546.776 166.196 549.412 165 553C164.34 553 163.68 553 163 553C162.752 553.619 162.505 554.238 162.25 554.875C160.742 557.439 159.718 557.886 157 559C153.046 559.76 149.496 559.844 145.93 557.832C142.524 555.061 139.843 552.426 139 548C138.861 543.693 138.963 541.395 141.539 537.93C146.274 533.27 150.423 531.478 157 533Z" fill="#00341B"/>
<path d="M276 336C279.191 337.621 281.216 339.967 283.375 342.812C284.749 347.623 284.452 351.669 282.875 356.312C280.152 360.215 277.521 361.545 272.855 362.387C268.261 362.739 265.588 362.149 262 359.187C258.701 356.095 257.82 353.212 257.562 348.75C257.586 343.969 259.257 341.689 262.492 338.312C266.346 334.958 271.157 335.332 276 336Z" fill="#00341B"/>
<path d="M354 178C358.093 180.628 361.443 183.329 363 188C363.471 192.902 363.015 196.365 360.398 200.484C357.794 203.307 354.706 204.302 351 205C346.022 205.102 343.031 203.092 339.492 199.805C336.998 196.788 336.038 193.904 336 190C337.488 184.748 339.477 182.015 344 179C347.305 177.348 350.458 177.227 354 178Z" fill="#00351C"/>
<path d="M552 139C555.981 141.255 558.547 143.642 560 148C560.133 149.938 560.133 149.938 560.125 152C560.129 153.021 560.129 153.021 560.133 154.063C560 156 560 156 559 159C558.34 159 557.68 159 557 159C556.753 159.619 556.505 160.238 556.25 160.875C554.694 163.519 553.924 164.077 551 165C546.183 165.466 543.988 165.522 539.688 163.25C536.602 160.667 534.364 158.682 533.496 154.668C533.381 149.781 533.648 146.756 536.875 142.938C541.307 138.388 545.818 138.004 552 139Z" fill="#00331B"/>
<path d="M473 139C476.434 141 479.212 143.424 481 147C481.417 151.526 481.511 155.666 479.875 159.938C476.511 163.637 472.937 165.154 468 165.438C463.754 165.259 461.239 163.787 458 161C454.896 157.378 454.372 153.934 454.504 149.289C455.376 145.265 457.958 142.648 461 140C464.757 138.121 468.92 138.336 473 139Z" fill="#00341B"/>
<path d="M197 494C200.208 496.183 203.245 498.49 205 502C205.585 506.797 205.468 510.143 203.125 514.438C200.155 518.019 198.91 519.298 194.312 519.875C188.856 520.317 186.309 519.342 182 516C178.847 512.44 178.361 508.911 178.516 504.285C179.387 500.175 181.852 497.646 185 495C189.14 492.452 192.367 492.722 197 494Z" fill="#00341C"/>
<path d="M698 219C698 223.39 695.872 224.769 693 228C692.67 227.01 692.34 226.02 692 225C695.164 220.418 695.164 220.418 698 219Z" fill="#002314"/>
<path d="M186 652C186.66 652.33 187.32 652.66 188 653C185.69 655.31 183.38 657.62 181 660C181 657 181 657 183.5 654.312C184.325 653.549 185.15 652.786 186 652Z" fill="#002516"/>
<path d="M659 179C659.66 179.33 660.32 179.66 661 180C658.69 182.31 656.38 184.62 654 187C654 184 654 184 656.5 181.312C657.325 180.549 658.15 179.786 659 179Z" fill="#002515"/>
<g>
<rect x="311" y="700" width="420" height="150" rx="75" fill="#00371D"/>
<g fill="none" stroke="#ffffff" stroke-width="28" stroke-linecap="round" stroke-linejoin="round">
<path d="M361 820L361 730L404 775L447 730L447 820"/>
<path d="M479 820L522 730L565 820"/>
<path d="M498 793L546 793"/>
<path d="M597 730L683 820"/>
<path d="M683 730L597 820"/>
</g>
</g>
</svg>
